<?xml version="1.0" standalone="no"?>
<!DOCTYPE svg PUBLIC "-//W3C//DTD SVG 20010904//EN"
 "http://www.w3.org/TR/2001/REC-SVG-20010904/DTD/svg10.dtd">
<svg version="1.0" xmlns="http://www.w3.org/2000/svg"
 width="1024.000000pt" height="1024.000000pt" viewBox="0 0 1024.000000 1024.000000"
 preserveAspectRatio="xMidYMid meet">

<g transform="translate(0.000000,1024.000000) scale(0.100000,-0.100000)"
fill="#000000" stroke="none">
<path d="M4930 8974 c-515 -27 -1010 -167 -1420 -402 -482 -276 -939 -752
-1206 -1256 -51 -98 -54 -107 -42 -131 14 -25 15 -23 75 97 260 521 763 1038
1253 1287 345 176 756 298 1131 336 185 19 526 19 699 0 384 -41 725 -139
1102 -314 379 -176 786 -492 1117 -866 346 -391 605 -863 706 -1287 36 -150
44 -233 30 -293 -21 -90 -30 -95 -45 -23 -38 191 -179 539 -307 763 -173 301
-458 656 -758 941 -371 353 -653 543 -1030 691 -306 120 -673 195 -1014 206
l-74 2 -12 35 c-6 19 -23 41 -37 49 -23 13 -29 13 -51 -2 -14 -9 -28 -29 -32
-45 -6 -29 -7 -29 -98 -35 -138 -9 -435 -54 -584 -88 -561 -128 -1062 -439
-1473 -914 -137 -159 -340 -445 -435 -615 -60 -107 -68 -129 -56 -149 15 -24
35 -6 75 70 174 328 572 809 851 1029 316 248 611 398 969 490 177 45 718 129
736 113 2 -2 -15 -22 -38 -44 -35 -32 -41 -43 -33 -58 15 -26 5 -31 -63 -31
-100 0 -200 -63 -232 -146 -15 -38 -16 -123 -3 -162 3 -9 -21 -21 -72 -38 -42
-13 -110 -46 -150 -72 -117 -76 -169 -148 -169 -231 l0 -39 -87 -27 c-165 -51
-298 -139 -346 -229 -20 -37 -22 -55 -22 -202 l0 -160 -73 -79 c-96 -105 -122
-158 -122 -250 l0 -71 -46 -38 c-86 -72 -124 -199 -124 -410 0 -148 0 -148
-101 -217 -107 -74 -198 -168 -234 -244 -26 -57 -38 -145 -47 -380 l-3 -60
-83 -3 c-88 -3 -107 -19 -41 -34 46 -11 129 -49 129 -60 0 -4 14 -8 30 -8 22
0 40 -10 65 -37 37 -40 38 -44 3 -48 -13 -1 -54 -6 -91 -10 l-69 -7 -35 41
c-87 102 -237 119 -390 44 -67 -33 -146 -118 -168 -182 -9 -25 -19 -92 -22
-149 -6 -98 -7 -102 -27 -96 -60 19 -161 94 -224 167 -43 49 -122 177 -122
197 0 14 31 -2 83 -43 21 -16 40 -27 43 -24 10 10 -6 25 -59 56 -84 48 -133
101 -148 163 -33 127 1 893 48 1073 8 33 18 83 22 110 5 44 9 50 31 52 14 0
53 8 88 17 145 37 218 104 197 184 l-7 27 -10 -30 c-25 -73 -112 -127 -232
-144 -95 -14 -129 -1 -202 73 -68 69 -124 162 -171 286 -18 47 -32 75 -33 62
0 -37 68 -202 111 -269 46 -70 127 -153 176 -180 21 -11 31 -23 28 -33 -2 -8
-18 -82 -34 -165 -24 -120 -32 -197 -41 -390 -6 -132 -15 -267 -20 -300 -14
-83 -32 -143 -38 -125 -3 8 -15 29 -27 45 -12 17 -39 59 -59 95 -20 36 -48 80
-62 99 -18 26 -24 47 -24 86 0 28 3 55 7 58 3 4 8 59 10 124 3 64 10 154 17
200 11 79 7 108 -14 87 -14 -14 -30 -131 -30 -215 0 -42 -3 -124 -7 -183 l-6
-107 -23 22 c-26 25 -77 118 -94 174 -13 42 -149 306 -175 339 -8 11 -17 17
-21 14 -3 -4 25 -61 62 -129 43 -78 67 -132 66 -152 -1 -22 2 -27 11 -18 6 6
14 11 18 11 10 0 72 -180 65 -188 -4 -3 -40 29 -82 71 -60 61 -84 95 -119 169
-25 51 -42 80 -38 63 3 -16 19 -57 34 -90 15 -33 24 -61 18 -63 -5 -2 -9 -8
-9 -14 0 -6 7 -8 15 -4 8 3 15 2 15 -2 0 -12 55 -72 66 -72 12 0 115 -98 131
-125 11 -19 11 -19 6 3 -8 32 1 27 33 -20 16 -24 35 -50 43 -58 20 -21 101
-148 101 -159 0 -5 7 -14 15 -21 9 -8 13 -21 10 -34 -5 -17 -4 -18 4 -6 11 15
12 12 15 -22 1 -7 5 -16 9 -19 13 -9 -3 -59 -19 -59 -7 0 -21 15 -30 33 -9 17
-31 50 -48 72 -18 22 -52 69 -77 105 -25 36 -61 88 -81 116 -20 28 -46 70 -58
94 -12 23 -23 40 -26 38 -14 -15 158 -288 260 -412 18 -23 36 -52 41 -64 4
-13 15 -32 26 -43 10 -10 25 -44 34 -76 9 -32 27 -83 40 -113 14 -30 43 -102
66 -160 23 -58 43 -111 46 -117 3 -7 0 -13 -7 -13 -17 0 -141 126 -132 135 4
5 2 5 -4 2 -10 -6 -42 28 -127 136 -47 60 -135 203 -179 291 -25 51 -34 62
-39 49 -6 -17 -7 -16 -14 2 -4 11 -20 46 -37 78 -16 31 -26 63 -22 70 4 6 3 8
-1 4 -9 -7 -18 7 -57 84 -33 67 -94 276 -84 287 8 8 41 -36 87 -118 23 -41 54
-91 69 -110 15 -19 48 -75 73 -125 25 -49 53 -99 62 -110 32 -40 -89 193 -141
272 -30 45 -61 98 -69 117 -8 19 -30 52 -49 72 -20 21 -52 68 -73 103 -21 36
-65 98 -99 139 -34 40 -85 114 -115 163 -56 96 -66 106 -80 92 -8 -8 6 -33
104 -183 40 -61 44 -70 21 -50 -94 83 -194 125 -194 83 0 -30 13 -40 97 -82
71 -35 87 -48 126 -103 54 -76 77 -120 77 -147 0 -11 6 -26 13 -33 19 -20 37
-101 38 -171 l2 -62 8 63 c10 77 19 107 28 96 5 -5 18 -38 31 -74 12 -36 31
-85 43 -110 11 -25 31 -70 44 -100 23 -53 35 -80 139 -295 72 -149 70 -141 37
-120 -188 120 -320 254 -393 397 -19 40 -22 29 -9 -33 26 -120 127 -263 280
-395 123 -106 172 -143 248 -189 35 -21 86 -58 113 -82 l49 -43 -33 0 c-40 0
-167 34 -212 56 -159 81 -269 167 -351 276 -51 67 -61 57 -15 -15 64 -102 173
-184 379 -288 67 -34 103 -44 245 -70 56 -10 69 -19 60 -42 -6 -17 -43 -22
-124 -18 l-35 2 45 -23 45 -23 -50 -3 c-62 -4 -189 14 -267 38 -66 20 -90 8
-31 -17 68 -28 176 -53 263 -59 47 -3 107 -10 134 -16 34 -7 50 -7 55 0 6 10
51 8 311 -12 50 -4 50 -4 50 -21 0 -8 -9 -19 -20 -25 -23 -12 -26 -42 -7 -59
10 -7 30 -7 76 1 l62 12 43 -50 c24 -27 72 -69 108 -93 50 -33 71 -56 95 -100
56 -104 100 -117 285 -81 196 38 314 50 578 60 552 20 546 19 715 73 96 31
107 32 260 31 229 -1 321 -26 519 -143 l105 -62 128 15 c70 9 200 20 288 26
576 38 974 77 1185 117 267 49 310 54 650 67 379 15 401 19 503 82 l61 38 231
6 c214 6 235 9 295 32 225 87 409 221 512 371 45 66 120 214 136 267 31 107
17 145 -18 47 -35 -97 -74 -168 -142 -258 -105 -141 -251 -272 -328 -293 -18
-6 -9 6 35 46 115 103 187 173 208 203 14 21 4 15 -34 -21 -137 -129 -347
-282 -369 -269 -5 3 -10 19 -10 35 0 16 -4 31 -9 34 -5 3 -33 -8 -62 -24 -63
-34 -65 -35 -73 -15 -6 17 59 55 95 55 24 0 156 65 237 117 94 60 302 229 302
246 0 5 -35 -20 -77 -55 -88 -72 -134 -107 -206 -155 -59 -40 -178 -106 -182
-101 -6 6 29 42 78 82 26 21 67 64 90 95 51 68 66 82 142 134 33 22 90 62 126
89 37 26 71 48 77 48 5 0 12 7 16 15 10 27 -13 16 -107 -53 -50 -37 -115 -82
-144 -99 l-52 -32 41 77 c23 42 47 84 53 92 7 8 28 57 47 109 20 52 37 88 40
80 7 -19 40 61 34 83 -2 10 0 21 5 24 5 3 9 12 9 20 0 9 16 48 35 88 19 40 35
78 35 83 0 6 15 33 34 61 43 62 156 286 186 370 13 34 25 60 28 58 17 -18 -58
-253 -113 -351 -20 -37 -22 -51 -19 -168 2 -70 7 -128 11 -130 12 -3 15 183 4
215 -9 25 -6 36 19 76 16 27 48 95 71 153 l42 104 1 173 c1 160 0 173 -18 178
-20 7 -39 -13 -31 -33 2 -8 -10 -19 -28 -27 -37 -15 -64 -44 -96 -100 -15 -27
-17 -35 -7 -26 25 20 28 8 11 -40 -14 -38 -13 -41 1 -29 13 11 14 9 9 -14 -5
-17 -3 -27 3 -27 6 0 14 17 17 38 15 89 59 163 88 145 18 -11 0 -128 -33 -217
-51 -140 -169 -350 -170 -303 0 9 5 17 10 17 12 0 13 97 1 104 -5 3 -11 -4
-14 -17 -27 -121 -67 -246 -162 -507 -48 -130 -201 -416 -258 -480 -62 -71
-229 -173 -304 -186 -15 -3 -37 -7 -48 -11 -11 -3 16 23 60 59 92 74 175 158
212 214 15 22 37 52 50 67 13 16 23 33 23 38 0 20 -17 6 -55 -48 -62 -87 -141
-169 -245 -253 -124 -100 -152 -118 -158 -102 -2 8 -9 9 -15 5 -7 -5 -31 -6
-54 -3 l-42 5 85 88 c47 49 84 90 82 92 -2 2 -52 -44 -112 -102 -66 -65 -104
-108 -97 -112 12 -8 31 -65 31 -94 0 -16 -8 -18 -58 -16 -51 2 -63 -2 -100
-29 -24 -17 -65 -35 -91 -41 -66 -14 -263 -29 -533 -41 -232 -10 -335 -22
-563 -65 -253 -48 -458 -68 -870 -85 -288 -12 -433 -24 -583 -50 -94 -16 -112
-16 -153 -4 -26 8 -57 23 -70 33 l-24 19 42 12 c23 7 40 17 37 21 -3 5 8 6 23
3 15 -3 109 11 208 31 172 35 192 37 475 45 426 12 506 20 996 100 200 33 290
42 530 55 381 20 394 22 394 64 0 38 -25 108 -56 154 l-25 38 46 53 c37 44 92
117 188 251 14 19 16 19 78 -15 51 -27 79 -35 141 -39 l78 -6 -98 -150 c-120
-185 -124 -192 -69 -132 24 26 77 104 118 172 67 112 96 145 129 145 11 0 13
-137 4 -229 -5 -47 -11 -61 -23 -61 -12 0 -13 -2 -3 -8 8 -5 10 -16 5 -28 -6
-18 49 39 135 138 93 108 358 534 350 560 -2 6 -10 -3 -18 -18 -8 -16 -50 -87
-94 -159 -116 -192 -168 -265 -318 -449 -17 -20 -18 -19 -18 55 0 69 2 78 26
100 49 45 294 425 294 455 0 4 -31 -42 -68 -102 -38 -60 -92 -143 -121 -184
-29 -41 -67 -96 -84 -122 -18 -26 -35 -48 -39 -48 -5 0 -8 28 -8 63 0 54 5 71
34 118 18 30 83 136 144 236 60 101 120 195 131 209 12 15 21 31 21 35 0 23
-21 1 -85 -88 -38 -54 -73 -99 -77 -101 -5 -2 -8 -8 -8 -13 0 -13 -103 -169
-112 -169 -10 0 6 39 61 151 133 269 390 560 504 573 12 1 42 8 67 15 31 9 45
10 48 2 9 -27 19 -7 17 32 -2 27 10 83 36 162 21 66 57 185 79 265 23 80 45
154 50 165 8 18 9 18 9 -5 1 -14 -4 -42 -10 -63 -24 -89 -37 -169 -30 -194 6
-23 13 -8 41 92 20 72 34 144 34 180 1 54 -1 60 -20 63 -32 5 -52 -22 -74
-101 -12 -40 -56 -180 -98 -311 l-77 -239 -59 -28 c-33 -16 -63 -26 -67 -23
-4 2 -1 18 8 35 8 17 13 33 10 36 -3 3 -17 -17 -31 -44 -25 -51 -52 -80 -63
-70 -3 4 22 64 55 134 39 84 69 165 86 233 35 148 39 170 28 170 -5 0 -12 -21
-15 -47 -21 -168 -195 -573 -247 -573 -4 0 -8 60 -9 133 -1 142 -20 493 -27
516 -3 10 -8 11 -15 4 -6 -6 -6 -26 1 -59 15 -64 31 -593 20 -615 -5 -9 -24
-34 -42 -57 -18 -22 -51 -71 -73 -107 -22 -37 -49 -76 -59 -86 -11 -11 -16
-19 -11 -19 4 0 1 -8 -7 -17 -9 -10 -30 -45 -47 -78 -17 -33 -31 -55 -31 -49
0 17 50 123 62 130 6 4 5 10 -3 15 -11 7 -11 9 2 9 9 0 19 9 22 21 3 12 10 18
16 14 7 -4 8 0 4 11 -6 15 -8 15 -23 -4 -10 -12 -20 -19 -23 -16 -7 8 -42 -53
-72 -126 -14 -36 -43 -136 -65 -223 -21 -87 -44 -165 -50 -173 -18 -21 -84
-35 -132 -28 -49 8 -110 36 -187 88 -71 48 -106 49 -61 1 19 -20 19 -24 6 -50
-24 -46 -197 -265 -218 -276 -17 -9 -27 -4 -67 34 -105 102 -248 180 -400 218
l-43 10 6 42 c3 23 11 104 17 179 24 301 -36 446 -250 603 l-83 61 -2 195 c-1
214 -4 223 -64 276 l-37 32 0 220 0 219 -30 43 c-23 33 -52 55 -120 91 l-90
47 -7 75 c-10 112 -25 153 -71 203 -49 53 -138 101 -296 157 l-114 41 -14 58
c-25 113 -67 161 -154 179 -45 9 -60 17 -73 39 -9 15 -34 42 -56 59 -40 31
-40 32 -40 99 0 120 -65 210 -174 241 -42 11 -47 16 -57 54 -6 22 -17 52 -26
65 l-15 24 58 -8 c254 -31 559 -109 784 -202 223 -92 557 -298 920 -567 182
-135 407 -363 571 -581 327 -431 532 -805 609 -1113 16 -63 36 -125 45 -138
15 -23 12 -27 -108 -161 -127 -142 -327 -386 -327 -399 0 -15 56 45 148 161
117 147 221 259 301 326 68 57 76 76 87 204 18 216 -108 615 -299 950 -341
598 -860 1113 -1472 1460 -322 183 -780 321 -1220 369 -148 16 -386 25 -495
20z m160 -218 c0 -8 -4 -18 -10 -21 -5 -3 -10 3 -10 14 0 12 5 21 10 21 6 0
10 -6 10 -14z m179 -122 c16 -12 20 -19 12 -27 -8 -8 -19 -4 -38 16 -31 31
-13 38 26 11z m-86 -23 c15 -15 -10 -41 -40 -41 -13 0 -34 5 -45 11 -17 9 -20
9 -15 -4 4 -11 -3 -16 -26 -20 -18 -2 -33 -3 -35 -2 -6 5 20 49 36 61 18 13
110 10 125 -5z m-279 -141 c22 -5 51 -20 65 -35 l26 -26 -29 15 c-20 10 -35
12 -47 5 -24 -13 -42 -11 -33 3 5 8 0 9 -17 5 -13 -4 -30 -7 -36 -7 -7 0 -13
-5 -13 -10 0 -6 11 -8 26 -4 20 5 25 4 19 -5 -5 -9 -20 -11 -44 -7 -20 4 -31
3 -25 -1 6 -5 7 -18 3 -33 -6 -23 -7 -23 -8 -3 -1 12 -5 24 -9 27 -9 6 -47
-53 -39 -61 3 -2 13 8 22 24 15 26 16 27 10 3 -4 -14 -10 -41 -15 -60 -7 -32
-8 -32 -9 -7 0 15 -5 27 -10 27 -14 0 -20 -40 -10 -67 12 -31 6 -39 -11 -17
-8 8 -16 42 -18 73 -9 128 70 192 202 161z m511 -22 c27 -12 32 -27 13 -46
-15 -15 -58 -16 -58 -1 0 5 -4 8 -8 5 -5 -3 -6 8 -4 25 5 31 17 35 57 17z
m-505 -48 c12 -8 11 -10 -7 -10 -13 0 -23 5 -23 10 0 13 11 13 30 0z m360 -30
c0 -5 -5 -10 -11 -10 -5 0 -7 5 -4 10 3 6 8 10 11 10 2 0 4 -4 4 -10z m-170
-250 c21 -21 19 -40 -4 -40 -7 0 -33 -18 -57 -41 -50 -46 -72 -43 -77 10 -4
36 22 64 73 80 43 13 43 13 65 -9z m458 8 c21 -21 13 -34 -32 -57 l-44 -23
-41 24 c-22 12 -41 25 -41 28 0 6 103 36 131 39 8 0 20 -4 27 -11z m-883 -23
c0 -11 5 -23 10 -27 6 -5 4 -13 -6 -23 -12 -13 -24 -14 -50 -8 -45 12 -52 46
-12 67 36 20 58 16 58 -9z m460 -75 c0 -20 -6 -26 -28 -28 -15 -2 -32 -12 -38
-23 -5 -11 -14 -17 -20 -14 -17 11 -9 38 18 67 34 36 68 34 68 -2z m-610 -120
c31 -32 105 -60 161 -60 18 0 58 6 88 14 l54 14 43 -40 c54 -51 105 -74 196
-86 145 -20 263 14 296 85 9 20 16 23 36 18 15 -4 60 -9 101 -12 60 -4 87 -1
135 16 33 12 84 24 114 26 54 4 84 15 42 15 -12 0 -19 4 -16 10 4 6 -6 7 -25
3 -29 -5 -31 -4 -26 21 4 14 8 37 11 51 11 54 84 8 90 -56 1 -19 6 -42 10 -52
21 -50 -85 -114 -213 -128 -102 -11 -182 -28 -182 -39 0 -4 21 -2 47 6 25 8
67 13 92 13 25 -1 38 -3 29 -6 -10 -2 -15 -10 -11 -19 3 -9 -1 -14 -13 -14 -9
0 -15 -2 -12 -6 6 -6 191 57 237 80 40 21 41 21 41 -15 0 -44 -30 -91 -53 -85
-11 2 -16 2 -13 -1 3 -3 -2 -12 -12 -19 -20 -16 -36 -18 -27 -4 3 6 -1 10 -9
10 -31 0 -15 15 32 30 30 10 48 21 50 33 3 16 0 18 -20 12 -12 -4 -27 -12 -33
-19 -5 -6 -27 -20 -47 -29 -39 -18 -53 -43 -19 -32 11 3 21 0 24 -9 6 -14 -19
-26 -123 -60 -112 -36 -236 -59 -415 -77 -132 -13 -460 -7 -510 10 -16 5 -64
15 -105 20 -102 14 -130 20 -152 32 -11 6 -18 6 -18 0 0 -11 -38 -2 -46 11 -3
5 7 6 23 3 27 -5 27 -5 4 5 -13 6 -32 8 -42 5 -11 -4 -19 -3 -19 2 0 16 42 12
97 -9 53 -19 71 -19 59 0 -3 5 -39 25 -81 43 -41 19 -75 40 -75 48 0 9 6 11
18 6 32 -13 124 -36 128 -32 3 2 -27 15 -67 27 -64 21 -91 41 -76 56 3 3 43
-6 89 -19 87 -27 139 -33 248 -28 45 2 59 5 45 10 -11 5 -54 7 -95 4 -59 -3
-95 1 -170 22 -52 14 -102 27 -112 28 -41 4 -49 143 -11 196 11 14 53 43 94
64 l74 37 5 -50 c4 -36 13 -57 35 -80z m-285 -282 c0 -103 18 -135 100 -174
75 -37 157 -57 330 -82 179 -24 619 -24 780 1 239 38 395 92 454 158 33 36 36
44 36 99 0 41 4 60 13 60 27 0 296 -112 313 -131 9 -10 19 -31 20 -47 2 -15 8
-56 14 -92 11 -66 5 -144 -10 -135 -5 3 -10 1 -12 -4 -6 -15 -80 -61 -99 -61
-11 0 -19 -6 -19 -14 0 -8 -12 -17 -26 -20 -15 -4 -59 -22 -98 -41 -312 -147
-832 -264 -1172 -265 -128 0 -355 21 -544 51 -149 23 -335 82 -384 120 -26 20
-43 76 -32 104 4 13 11 12 48 -4 198 -84 357 -113 627 -112 443 0 789 9 807
19 18 11 17 11 -6 13 -20 1 -18 3 15 14 80 26 131 53 175 94 l45 42 -67 -45
c-37 -24 -91 -51 -121 -60 -64 -19 -171 -22 -210 -7 -41 16 -58 13 -22 -4 l30
-14 -29 6 c-17 3 -27 2 -23 -3 3 -6 -153 -9 -401 -9 -487 2 -529 8 -782 113
-93 38 -110 53 -110 92 l0 26 78 -39 c43 -21 98 -41 123 -43 l44 -5 -55 26
c-180 86 -182 88 -196 130 -8 22 -14 61 -14 87 0 39 6 54 32 83 38 44 80 66
211 110 142 48 137 50 137 -37z m799 -214 c8 -7 -224 -2 -274 6 -29 4 16 5
110 2 88 -2 162 -6 164 -8z m1456 -218 c68 -29 74 -91 15 -159 -47 -53 -160
-131 -228 -158 -35 -13 -40 -18 -22 -18 14 0 46 12 71 27 26 15 68 39 94 54
26 15 51 26 55 23 4 -3 7 3 6 13 -1 12 5 16 21 15 18 -2 22 2 20 19 -1 11 4
23 12 26 11 4 13 -2 8 -28 -4 -18 -8 -47 -8 -64 l-1 -31 -7 30 -7 30 -8 -34
c-6 -25 -11 -30 -18 -20 -7 10 -8 5 -6 -18 3 -18 1 -30 -4 -27 -4 3 -8 -1 -8
-9 0 -7 -17 -28 -37 -47 -32 -28 -34 -32 -13 -25 22 7 23 6 8 -8 -9 -9 -24
-14 -37 -10 -15 4 -20 2 -16 -8 4 -12 -45 -51 -68 -53 -4 -1 -11 -6 -15 -12
-11 -17 -101 -64 -123 -64 -11 0 -17 -4 -14 -10 3 -5 0 -10 -8 -10 -8 0 -40
-11 -71 -25 -130 -57 -345 -120 -531 -153 -214 -39 -279 -45 -510 -44 -396 2
-765 57 -1092 163 -152 49 -273 136 -273 195 0 32 30 29 45 -4 5 -12 16 -20
22 -17 7 2 13 -1 13 -7 0 -6 3 -9 6 -6 3 4 37 -9 74 -28 71 -35 138 -44 185
-24 12 5 -5 6 -41 3 -68 -6 -70 -5 -192 74 -94 62 -112 85 -119 147 -7 56 15
80 87 95 52 11 52 11 118 -32 214 -140 596 -227 996 -227 159 0 525 24 637 41
189 28 423 97 624 184 220 94 256 121 280 200 17 60 25 64 80 41z m-491 -167
c-7 -12 -17 -11 -39 4 -16 13 -15 14 13 9 18 -2 29 -8 26 -13z m73 5 c-3 -3
-12 -4 -19 -1 -8 3 -5 6 6 6 11 1 17 -2 13 -5z m-116 -25 c16 -10 12 -14 -21
-23 -19 -6 -21 -5 -10 3 12 9 9 11 -13 11 -16 0 -26 -4 -22 -10 3 -5 1 -10 -5
-10 -6 0 -9 -4 -6 -9 4 -5 -17 -17 -45 -26 -42 -14 -55 -15 -74 -5 -13 7 -29
10 -37 7 -7 -3 -3 -6 10 -6 21 -1 22 -3 8 -16 -21 -21 -133 -48 -170 -41 -21
4 -26 3 -16 -3 17 -12 15 -13 -75 -31 -33 -6 -78 -16 -100 -21 -81 -18 -264
-38 -410 -45 -251 -11 -586 29 -770 92 -38 13 -59 22 -45 19 297 -59 585 -89
770 -81 217 10 496 63 725 136 39 13 95 24 125 26 46 2 49 1 20 -5 l-35 -8 38
-2 c20 0 37 3 37 8 0 5 8 12 18 14 9 3 -1 6 -23 7 l-40 2 40 12 c46 15 106 18
126 5z m-1866 -97 c-3 -3 -11 0 -18 7 -9 10 -8 11 6 5 10 -3 15 -9 12 -12z
m2427 -34 c-8 -8 -9 -4 -5 13 4 13 8 18 11 10 2 -7 -1 -18 -6 -23z m-2744
-292 c106 -54 136 -64 337 -116 292 -74 504 -106 804 -120 285 -14 476 2 783
64 70 14 135 23 145 20 12 -4 14 -3 6 3 -14 10 59 40 112 47 55 6 95 18 89 27
-3 5 3 6 12 2 12 -4 14 -8 5 -11 -8 -3 -7 -8 6 -18 16 -13 15 -13 -9 -3 -21 9
-34 9 -58 -1 -23 -9 -28 -15 -18 -21 9 -6 3 -9 -17 -10 -16 0 -24 -3 -17 -6
23 -9 1 -22 -31 -18 -18 3 -26 2 -18 -1 9 -5 4 -11 -19 -20 -17 -8 -36 -11
-41 -8 -5 3 -9 1 -9 -3 0 -29 -402 -105 -653 -124 -239 -19 -640 7 -887 57
-254 51 -361 83 -485 145 -103 52 -155 98 -155 136 0 20 56 10 118 -21z m-198
-6 c0 -68 42 -111 165 -173 193 -96 580 -193 860 -216 306 -24 387 -24 660 4
465 47 733 119 1110 300 171 82 237 97 188 43 -9 -10 -11 -18 -6 -18 6 0 14
-7 17 -16 8 -20 -16 -39 -99 -76 -33 -15 -56 -28 -51 -28 20 0 92 25 104 37
17 17 35 17 27 1 -4 -7 3 -2 14 11 12 13 21 32 21 42 0 10 5 19 10 19 6 0 10
9 10 20 0 29 17 24 35 -10 18 -34 20 -123 4 -186 -10 -39 -14 -44 -33 -38 -18
6 -19 5 -7 -9 11 -14 11 -19 -1 -31 -7 -7 -22 -26 -32 -40 -10 -14 -26 -26
-35 -26 -9 -1 -36 -21 -61 -46 -25 -24 -60 -50 -77 -56 -18 -7 -33 -16 -33
-20 0 -5 -9 -4 -21 2 -11 7 -23 9 -26 6 -3 -3 2 -9 12 -12 14 -6 11 -10 -16
-21 -89 -39 -241 -83 -267 -77 -21 4 -24 3 -12 -5 8 -6 12 -11 8 -11 -3 0 -14
-3 -24 -7 -12 -4 -15 -3 -10 5 4 7 2 12 -3 12 -6 0 -11 -4 -11 -8 0 -13 -57
-28 -230 -61 -272 -51 -329 -56 -705 -56 -389 1 -431 5 -825 80 -178 34 -559
148 -580 174 -3 3 -23 16 -45 28 -22 12 -40 26 -40 30 0 16 -17 33 -25 28 -5
-3 -12 4 -14 17 -9 38 -14 188 -7 188 3 0 26 -28 50 -61 24 -33 56 -66 72 -75
16 -8 29 -19 29 -25 0 -6 5 -7 10 -4 6 4 22 0 35 -9 13 -9 30 -16 37 -16 7 0
26 -7 42 -15 16 -9 31 -13 34 -10 3 3 10 0 17 -5 7 -5 38 -18 71 -28 62 -20
135 -20 209 0 22 6 76 14 120 18 l80 7 -90 -2 c-49 -2 -118 -8 -151 -14 -50
-8 -72 -8 -115 5 -30 8 -67 18 -84 21 -16 3 -37 12 -46 19 -9 8 -18 12 -20 9
-9 -8 -110 35 -148 63 -20 15 -64 55 -98 90 -60 60 -63 65 -63 111 0 31 5 53
15 61 8 7 15 27 15 45 0 17 3 35 7 38 14 15 23 6 23 -23z m3028 -24 c-7 -8
-15 -12 -17 -11 -5 6 10 25 20 25 5 0 4 -6 -3 -14z m-493 -26 c-27 -12 -43
-12 -25 0 8 5 22 9 30 9 10 0 8 -3 -5 -9z m15 -30 c-20 -13 -33 -13 -25 0 3 6
14 10 23 10 15 0 15 -2 2 -10z m-4931 -228 c49 -75 58 -102 45 -136 -10 -27
-21 -18 -39 29 -14 35 -15 48 -6 59 10 12 8 17 -7 25 -11 6 -27 29 -36 51 -30
74 -21 69 43 -28z m2541 -277 c248 -87 608 -164 965 -207 144 -17 631 -15 780
4 61 7 126 10 145 7 l35 -6 -35 -3 -35 -2 35 -9 c19 -4 42 -6 52 -3 9 3 19 1
22 -4 3 -5 -18 -12 -47 -15 -28 -3 -101 -13 -162 -22 -151 -22 -583 -31 -750
-16 -407 38 -689 91 -931 175 -139 49 -174 64 -174 79 0 7 -9 18 -20 25 -17
10 -20 10 -20 -3 0 -8 5 -15 12 -15 6 0 8 -3 5 -6 -9 -9 -35 14 -69 60 -46 64
-36 71 45 27 39 -22 106 -51 147 -66z m3086 44 c90 -61 137 -137 137 -219 0
-71 -21 -118 -79 -180 -74 -79 -214 -157 -469 -260 -158 -63 -171 -69 -148
-70 43 0 239 72 378 140 156 76 242 130 304 190 23 23 41 34 41 26 0 -34 -170
-168 -298 -234 -280 -146 -780 -257 -1355 -303 -192 -15 -658 -7 -832 15 -676
85 -1095 226 -1285 433 -56 62 -83 107 -41 68 20 -17 20 -17 0 21 -28 55 -26
137 6 200 27 55 112 145 101 107 -26 -86 -23 -181 8 -242 91 -176 628 -366
1216 -431 391 -43 752 -37 1171 19 317 42 586 124 791 239 117 65 119 84 4 32
-196 -89 -397 -140 -755 -190 -565 -80 -1114 -64 -1629 46 -191 41 -312 79
-414 130 -82 41 -221 127 -256 158 -76 67 -93 218 -33 295 l19 25 57 -62 c47
-51 76 -71 168 -116 193 -94 402 -156 677 -201 277 -46 340 -50 715 -49 466 0
666 22 1015 109 318 79 608 214 680 315 25 35 41 34 106 -11z m-971 -227 c-3
-3 -11 0 -18 7 -9 10 -8 11 6 5 10 -3 15 -9 12 -12z m-142 -2 c-14 -6 -32 -6
-45 0 -19 7 -15 9 22 9 37 0 41 -2 23 -9z m-4491 -137 c44 -77 126 -155 262
-247 63 -43 122 -88 130 -100 8 -11 35 -43 60 -71 24 -27 43 -51 42 -52 -1 -2
-25 8 -52 21 -104 50 -305 225 -399 346 -57 74 -100 160 -80 160 3 0 19 -26
37 -57z m7075 -17 c-7 -14 -13 -23 -15 -21 -7 6 9 45 18 45 4 0 3 -11 -3 -24z
m-5051 -154 c164 -147 407 -248 775 -321 546 -109 972 -127 1565 -66 565 59
1018 195 1258 377 112 86 156 111 162 93 16 -41 -7 -90 -71 -152 -183 -176
-751 -355 -1380 -435 -232 -30 -737 -32 -950 -5 -565 73 -1028 180 -1253 289
-94 46 -209 145 -199 171 3 9 0 21 -7 27 -16 13 -30 111 -21 140 6 19 10 16
34 -22 15 -24 54 -67 87 -96z m-1676 -22 c6 -11 8 -20 6 -20 -3 0 -10 9 -16
20 -6 11 -8 20 -6 20 3 0 10 -9 16 -20z m1245 -149 c39 -17 75 -46 75 -59 0
-4 -29 -8 -64 -8 -113 -2 -190 -57 -245 -174 -23 -48 -26 -68 -26 -155 0 -127
24 -211 74 -264 20 -20 28 -27 18 -16 -33 41 -59 127 -64 216 -10 159 53 291
162 340 45 21 135 25 183 8 34 -12 75 -60 98 -114 23 -57 21 -60 -49 -60 -54
0 -70 -4 -107 -30 -93 -64 -150 -168 -171 -310 -15 -102 -32 -105 -131 -23
-102 84 -153 217 -146 376 3 80 9 106 31 148 67 131 223 185 362 125z m-796
-165 c40 -57 88 -120 107 -140 19 -20 32 -41 29 -46 -3 -6 -3 -15 1 -21 4 -8
9 -7 15 2 6 11 11 11 21 1 9 -9 9 -12 0 -12 -7 0 -12 -4 -12 -9 0 -11 39 -26
57 -23 7 2 27 -5 45 -15 l33 -18 -59 -3 c-57 -3 -60 -2 -113 45 -63 54 -138
172 -177 276 -14 37 -24 67 -22 67 2 0 36 -47 75 -104z m1084 97 c-13 -2 -33
-2 -45 0 -13 2 -3 4 22 4 25 0 35 -2 23 -4z m118 -20 c13 -16 12 -17 -3 -4
-10 7 -18 15 -18 17 0 8 8 3 21 -13z m3954 -137 c22 -16 14 -46 -12 -46 -23 0
-83 36 -83 50 0 15 73 12 95 -4z m215 -2 c0 -17 -22 -14 -28 4 -2 7 3 12 12
12 9 0 16 -7 16 -16z m50 -52 c0 -13 -3 -12 -20 3 -11 10 -17 22 -14 27 8 12
34 -11 34 -30z m-5540 6 c0 -6 -6 -5 -15 2 -8 7 -15 14 -15 16 0 2 7 1 15 -2
8 -4 15 -11 15 -16z m5057 -24 c-3 -3 -12 -4 -19 -1 -8 3 -5 6 6 6 11 1 17 -2
13 -5z m154 -22 c60 4 63 -18 5 -33 -26 -6 -49 -15 -52 -20 -7 -12 7 -11 46 2
21 8 34 8 39 2 3 -6 13 -12 21 -15 26 -9 -128 -68 -250 -96 -43 -9 -1 23 45
35 l40 11 -39 1 c-48 1 -41 10 27 33 56 19 56 19 -105 -7 -96 -16 -132 -28
-154 -50 -9 -8 -33 -15 -56 -15 -33 0 -39 3 -34 16 6 15 -1 16 -60 10 -41 -4
-63 -3 -60 3 11 17 68 29 159 35 92 6 111 11 102 27 -4 5 -1 9 4 9 6 0 11 -5
11 -11 0 -7 7 -8 18 -4 9 5 35 11 57 15 35 7 30 8 -32 9 -44 1 -75 -3 -79 -10
-4 -8 -10 -6 -17 6 -19 34 45 59 133 53 41 -3 45 -5 42 -27 -2 -22 0 -23 34
-16 58 10 84 23 84 41 0 13 3 14 14 4 8 -6 34 -10 57 -8z m-5168 -42 c-3 -11
-9 -17 -14 -15 -10 7 -1 35 11 35 5 0 6 -9 3 -20z m77 -43 c12 -15 18 -27 13
-27 -13 1 -53 37 -53 49 0 6 -4 11 -10 11 -5 0 -10 5 -10 11 0 14 34 -11 60
-44z m979 29 c56 -45 100 -189 81 -267 -7 -26 -18 -53 -26 -60 -8 -6 -14 -9
-14 -6 0 2 -17 -12 -38 -33 -62 -62 -150 -77 -201 -34 -63 53 -66 160 -8 278
59 118 146 170 206 122z m321 -11 c173 -6 328 -22 351 -36 30 -18 -6 -21 -133
-10 -73 7 -198 14 -278 16 -80 2 -148 4 -152 4 -5 1 -8 10 -8 21 0 16 5 19 28
15 15 -2 101 -7 192 -10z m3248 8 c-10 -2 -26 -2 -35 0 -10 3 -2 5 17 5 19 0
27 -2 18 -5z m1718 -100 c-30 -17 -44 -16 -20 2 14 11 15 14 4 15 -13 0 -13 2
-1 9 9 6 19 5 26 -2 10 -10 8 -15 -9 -24z m-1995 -7 c-6 -7 -28 -14 -49 -14
-20 0 -49 -5 -62 -10 -30 -11 -188 -27 -179 -18 11 11 207 50 278 55 19 1 21
-2 12 -13z m2254 4 c-3 -5 -12 -10 -18 -10 -7 0 -6 4 3 10 19 12 23 12 15 0z
m-1931 -39 c7 -11 -69 -21 -143 -20 l-56 1 60 13 c73 15 132 18 139 6z m-2336
-30 c17 0 32 -5 32 -11 0 -5 -62 -8 -155 -7 -85 1 -155 5 -155 9 0 4 -19 8
-42 10 -39 3 239 2 320 -1z m-403 -97 c149 -19 290 -39 315 -43 l45 -8 -47 -4
c-27 -1 -60 -3 -75 -3 -16 -1 -31 -5 -35 -10 -3 -5 -95 -9 -205 -9 -201 0
-317 12 -383 40 l-35 15 30 9 c18 5 32 5 35 -1 6 -9 99 -18 203 -19 22 -1 36
-5 32 -11 -3 -6 32 -8 92 -7 54 1 119 -2 146 -6 31 -6 47 -5 47 2 0 6 -18 11
-41 11 -22 0 -88 6 -147 14 -59 8 -165 22 -237 31 -154 20 -175 24 -175 37 0
13 99 4 435 -38z m832 7 c11 -5 126 -13 256 -17 130 -4 237 -11 237 -16 0 -4
-1 -8 -2 -9 -44 -8 -238 -15 -278 -8 -30 4 -116 15 -190 23 -74 9 -161 18
-194 22 -40 5 -54 9 -45 16 17 12 190 3 216 -11z"/>
<path d="M4913 7663 c-23 -9 -14 -25 10 -17 12 4 43 6 69 5 25 -1 49 3 53 9 6
10 -107 14 -132 3z"/>
<path d="M4755 7640 c10 -11 20 -20 22 -20 2 0 -2 9 -9 20 -7 11 -17 20 -22
20 -5 0 -1 -9 9 -20z"/>
<path d="M4875 7621 c-6 -5 -28 -11 -50 -14 l-40 -4 41 -1 c26 -1 46 3 54 13
14 16 10 21 -5 6z"/>
<path d="M6250 7474 l-25 -14 28 2 c15 1 27 8 27 15 0 7 -1 13 -2 12 -2 -1
-14 -7 -28 -15z"/>
<path d="M6130 7440 c-117 -24 -133 -29 -75 -24 69 6 165 27 165 36 0 4 -1 7
-2 7 -2 -1 -41 -9 -88 -19z"/>
<path d="M5916 7374 c-52 -19 -60 -28 -16 -19 19 4 42 13 50 21 17 17 16 17
-34 -2z"/>
<path d="M3964 7325 c26 -19 42 -19 26 0 -7 8 -20 15 -29 15 -13 -1 -13 -3 3
-15z"/>
<path d="M5980 7310 c0 -5 5 -10 10 -10 6 0 10 5 10 10 0 6 -4 10 -10 10 -5 0
-10 -4 -10 -10z"/>
<path d="M5685 7280 c-19 -8 -19 -9 2 -9 12 -1 25 4 28 9 7 12 -2 12 -30 0z"/>
<path d="M5634 7238 l-19 -23 25 20 c14 11 27 21 29 22 2 2 0 3 -6 3 -5 0 -18
-10 -29 -22z"/>
<path d="M4415 7214 c-82 -40 -101 -41 -198 -11 -42 14 -81 21 -93 17 -15 -6
-7 -11 36 -25 30 -9 69 -20 86 -24 40 -10 148 4 178 24 48 32 94 38 311 40
l220 2 59 -39 c63 -42 130 -78 143 -78 4 0 -17 14 -47 32 -30 17 -57 34 -60
38 -3 4 -27 19 -53 33 l-48 27 -232 -1 -232 0 -70 -35z"/>
<path d="M6450 6933 c-13 -15 -12 -16 4 -10 10 4 20 7 22 7 2 0 4 5 4 10 0 15
-13 12 -30 -7z"/>
<path d="M6463 6903 c-18 -7 -16 -23 2 -23 8 0 15 7 15 15 0 8 -1 15 -2 14 -2
0 -9 -3 -15 -6z"/>
<path d="M6135 6860 c-19 -8 -19 -9 2 -9 12 -1 25 4 28 9 7 12 -2 12 -30 0z"/>
<path d="M6040 6829 c-43 -18 -80 -59 -96 -104 -4 -11 7 0 24 24 21 32 47 52
88 72 66 32 53 38 -16 8z"/>
<path d="M5790 6760 c0 -5 5 -10 10 -10 6 0 10 5 10 10 0 6 -4 10 -10 10 -5 0
-10 -4 -10 -10z"/>
<path d="M5925 6690 c-4 -6 -13 -9 -21 -6 -15 6 -20 -9 -5 -18 11 -7 48 20 39
29 -3 3 -9 1 -13 -5z"/>
<path d="M4058 6683 c7 -3 16 -2 19 1 4 3 -2 6 -13 5 -11 0 -14 -3 -6 -6z"/>
<path d="M4230 6660 c-33 -11 -46 -19 -32 -19 13 -1 31 3 40 8 24 12 84 22 78
13 -2 -4 11 -6 31 -4 24 3 31 7 22 13 -22 14 -79 9 -139 -11z"/>
<path d="M5361 6670 c-63 -9 -143 -31 -137 -37 2 -2 31 3 64 11 33 9 75 16 93
16 19 0 41 5 49 10 18 12 13 12 -69 0z"/>
<path d="M5179 6604 c-24 -29 -130 -106 -157 -114 -21 -7 -23 -8 -6 -9 11 -1
40 12 65 28 54 35 138 111 123 111 -6 0 -18 -7 -25 -16z"/>
<path d="M4915 6470 l-50 -7 45 -1 c25 -1 52 3 60 8 8 5 11 9 5 8 -5 -1 -32
-4 -60 -8z"/>
<path d="M6381 6294 c-9 -52 -19 -78 -36 -94 -31 -29 -69 -21 -90 20 -29 57
-78 64 -200 30 -66 -18 -67 -19 -20 -14 28 3 64 9 80 14 59 17 115 -1 135 -43
10 -20 26 -34 45 -39 27 -7 34 -4 62 28 24 27 33 49 38 89 11 83 -1 89 -14 9z"/>
<path d="M5949 6203 c-13 -17 -13 -17 6 -3 11 8 22 16 24 17 2 2 0 3 -6 3 -6
0 -17 -8 -24 -17z"/>
<path d="M5632 6160 c-29 -4 -55 -10 -57 -11 -2 -2 33 -4 78 -4 45 0 106 -4
135 -8 32 -5 51 -4 48 1 -3 5 -29 12 -58 16 -29 3 -62 8 -73 10 -11 2 -44 0
-73 -4z"/>
<path d="M5421 6104 c-12 -15 -21 -32 -21 -38 0 -11 39 34 40 46 0 4 10 9 23
11 22 4 22 4 0 6 -13 0 -30 -10 -42 -25z"/>
<path d="M4420 6114 c0 -7 52 -25 57 -20 2 2 -10 8 -26 14 -17 6 -31 9 -31 6z"/>
<path d="M4853 6086 c-16 -5 -30 -12 -33 -15 -3 -3 -21 -14 -40 -23 -26 -12
-30 -17 -15 -17 11 -1 38 11 59 25 36 25 46 26 140 25 55 -1 135 -4 176 -6 41
-3 85 -5 97 -5 13 0 35 -13 50 -30 14 -16 31 -30 37 -30 5 0 1 9 -10 19 -10
11 -30 31 -43 45 -13 14 -31 26 -40 26 -14 0 -14 -2 -1 -11 12 -8 9 -9 -10 -4
-39 10 -336 11 -367 1z"/>
<path d="M4560 6081 c-40 -6 -42 -7 -17 -12 15 -4 58 -4 96 -1 45 3 71 1 75
-7 4 -6 14 -11 23 -11 14 0 14 3 -2 20 -19 21 -75 25 -175 11z"/>
<path d="M6280 6066 c0 -2 7 -7 16 -10 8 -3 12 -2 9 4 -6 10 -25 14 -25 6z"/>
<path d="M5350 6010 c0 -5 5 -10 10 -10 6 0 10 5 10 10 0 6 -4 10 -10 10 -5 0
-10 -4 -10 -10z"/>
<path d="M4382 5979 c2 -7 10 -15 17 -17 8 -3 12 1 9 9 -2 7 -10 15 -17 17 -8
3 -12 -1 -9 -9z"/>
<path d="M6028 5983 c6 -2 18 -2 25 0 6 3 1 5 -13 5 -14 0 -19 -2 -12 -5z"/>
<path d="M5835 5930 c-3 -5 1 -10 9 -10 9 0 16 5 16 10 0 6 -4 10 -9 10 -6 0
-13 -4 -16 -10z"/>
<path d="M3031 4810 c0 -8 4 -24 9 -35 5 -13 9 -14 9 -5 0 8 -4 24 -9 35 -5
13 -9 14 -9 5z"/>
<path d="M2829 4731 c-23 -24 -29 -38 -29 -73 l1 -43 14 32 c8 18 25 44 39 58
50 50 123 20 114 -46 -5 -29 -4 -30 9 -14 21 30 15 61 -18 89 -43 36 -91 35
-130 -3z"/>
<path d="M2896 4665 c-3 -9 1 -18 10 -22 21 -8 25 -1 9 20 -11 15 -13 16 -19
2z"/>
<path d="M1875 7450 c-3 -5 1 -10 10 -10 9 0 13 5 10 10 -3 6 -8 10 -10 10 -2
0 -7 -4 -10 -10z"/>
<path d="M2030 7439 c0 -5 5 -7 10 -4 6 3 10 8 10 11 0 2 -4 4 -10 4 -5 0 -10
-5 -10 -11z"/>
<path d="M2052 7398 c9 -14 32 -54 51 -89 62 -114 137 -234 137 -219 0 9 -23
56 -52 105 -28 50 -68 119 -88 155 -20 35 -43 66 -51 69 -10 3 -9 -2 3 -21z"/>
<path d="M1722 7401 c2 -7 7 -12 11 -12 12 1 9 15 -3 20 -7 2 -11 -2 -8 -8z"/>
<path d="M1892 7403 c19 -39 28 -70 43 -143 9 -47 23 -114 30 -150 17 -83 27
-200 16 -200 -31 0 -172 238 -215 363 -3 10 -10 16 -15 12 -10 -6 6 -47 82
-205 81 -168 129 -226 165 -198 21 18 9 143 -33 323 -9 39 -20 86 -24 105 -8
37 -38 100 -47 100 -3 0 -4 -3 -2 -7z"/>
<path d="M3405 7129 c-57 -30 -91 -65 -120 -123 -24 -49 -35 -139 -17 -150 4
-2 16 17 26 42 26 62 60 116 113 179 54 63 53 81 -2 52z"/>
<path d="M2906 6985 c-21 -7 -51 -26 -67 -41 -27 -26 -56 -90 -46 -100 3 -3
24 14 46 39 80 86 182 87 224 1 24 -50 41 -52 45 -5 4 36 -16 73 -51 95 -34
22 -107 27 -151 11z"/>
<path d="M8891 6910 c-22 -101 -6 -182 18 -92 30 113 31 142 6 142 -8 0 -18
-20 -24 -50z"/>
<path d="M2605 6932 c-115 -71 -207 -274 -209 -463 -1 -100 9 -129 43 -129 9
0 48 35 88 79 54 58 69 81 60 90 -18 18 -29 14 -69 -26 -21 -20 -40 -34 -44
-31 -13 14 53 163 122 276 20 33 23 42 11 42 -22 0 -54 -48 -114 -170 l-52
-105 -1 65 c-1 130 72 279 170 342 27 18 50 36 50 41 0 12 -24 8 -55 -11z"/>
<path d="M7590 6935 c0 -4 20 -34 44 -68 41 -57 76 -145 76 -189 0 -33 -30
-19 -83 38 -45 49 -92 84 -113 84 -3 0 17 -25 45 -56 53 -58 61 -78 37 -87
-28 -11 -48 -54 -41 -88 6 -25 17 -35 61 -56 53 -24 54 -24 37 -49 -21 -32
-12 -112 18 -172 20 -41 21 -44 4 -62 -21 -23 -57 -192 -49 -226 15 -60 79
-49 122 21 29 48 46 55 61 27 11 -20 0 -81 -38 -226 -35 -133 -24 -124 51 39
59 129 66 164 36 192 -13 11 -34 24 -47 28 -17 5 -20 10 -12 18 22 22 13 83
-19 117 -16 18 -30 35 -30 39 0 3 25 19 56 35 51 27 94 69 82 82 -3 2 -28 -9
-56 -27 -67 -41 -112 -44 -130 -6 -23 48 -9 73 54 96 103 39 114 47 114 87 0
51 -28 92 -81 117 -44 21 -47 25 -52 69 -8 63 -41 135 -80 176 -32 34 -67 58
-67 47z m40 -304 c0 -4 32 -12 72 -15 60 -6 75 -12 100 -37 57 -56 22 -81 -83
-59 -81 17 -119 42 -119 78 0 16 3 32 7 35 9 10 23 9 23 -2z m115 -441 c3 -6
-4 -14 -17 -19 -13 -6 -17 -10 -10 -10 15 -1 6 -21 -9 -21 -10 0 -12 43 -2 53
10 10 31 8 38 -3z"/>
<path d="M7374 6869 c-3 -6 -2 -15 4 -21 13 -13 32 -2 32 18 0 16 -26 19 -36
3z"/>
<path d="M8711 6744 c0 -11 3 -14 6 -6 3 7 2 16 -1 19 -3 4 -6 -2 -5 -13z"/>
<path d="M7202 6724 c-23 -16 -29 -43 -12 -60 8 -8 23 -8 49 -1 104 28 179
-58 224 -255 8 -38 12 -68 7 -68 -4 0 -24 7 -43 15 -61 25 -64 17 -11 -34 28
-27 66 -75 84 -107 38 -67 47 -59 32 24 -6 32 -14 92 -17 134 -13 179 -87 316
-187 346 -67 21 -103 23 -126 6z"/>
<path d="M2884 6706 c-59 -28 -121 -96 -130 -143 -12 -62 2 -55 66 34 36 52
90 80 166 89 l57 7 -22 19 c-31 24 -76 23 -137 -6z"/>
<path d="M1197 6663 c-8 -12 45 -179 72 -229 25 -45 24 -39 -20 111 -32 111
-42 134 -52 118z"/>
<path d="M2692 6504 c-25 -38 -27 -70 -11 -129 l11 -40 17 24 c9 13 40 50 70
82 30 33 52 61 49 64 -3 3 -24 -2 -48 -10 -57 -20 -61 -19 -54 9 9 37 -9 38
-34 0z"/>
<path d="M1180 6455 c0 -18 19 -40 26 -32 4 4 0 15 -9 24 -9 10 -17 13 -17 8z"/>
<path d="M9051 6437 c-13 -21 -12 -21 5 -5 10 10 16 20 13 22 -3 3 -11 -5 -18
-17z"/>
<path d="M2242 6253 c-13 -34 -32 -103 -27 -103 1 0 16 7 31 15 16 8 46 18 67
21 20 4 37 10 37 14 0 8 -84 80 -93 80 -3 0 -9 -12 -15 -27z"/>
<path d="M8969 6218 c-7 -13 -14 -34 -15 -48 -4 -37 -39 -154 -74 -250 -31
-82 -52 -170 -31 -125 59 124 125 318 136 395 7 54 3 63 -16 28z"/>
<path d="M8854 6185 c6 -16 -13 -83 -40 -142 -8 -17 -14 -34 -14 -37 0 -3 -14
-35 -31 -71 -18 -36 -30 -68 -27 -70 12 -12 138 277 138 315 0 12 -7 20 -16
20 -10 0 -14 -5 -10 -15z"/>
<path d="M1566 6172 c-3 -6 -1 -14 5 -17 15 -10 25 3 12 16 -7 7 -13 7 -17 1z"/>
<path d="M8773 6168 c-19 -24 -143 -270 -143 -283 0 -7 -6 -18 -14 -25 -8 -6
-12 -18 -9 -26 6 -16 18 -10 18 9 0 12 46 106 89 182 13 22 37 66 55 98 18 31
29 57 23 57 -5 0 -14 -6 -19 -12z"/>
<path d="M972 6162 c10 -24 91 -142 144 -210 33 -43 70 -99 83 -125 13 -26 43
-68 67 -95 l45 -47 -47 65 c-25 36 -58 90 -73 120 -15 30 -48 83 -74 118 -25
35 -63 90 -82 123 -20 32 -43 59 -52 59 -8 0 -13 -4 -11 -8z"/>
<path d="M8186 6084 c-8 -20 -4 -25 11 -16 7 4 9 13 4 21 -6 10 -10 9 -15 -5z"/>
<path d="M8473 6061 c-15 -24 2 -54 17 -31 5 8 10 20 10 27 0 20 -15 23 -27 4z"/>
<path d="M1695 5963 c4 -16 15 -36 26 -46 24 -22 24 -20 -1 31 -23 48 -35 55
-25 15z"/>
<path d="M1273 5948 c8 -20 13 -38 11 -41 -7 -6 42 -115 70 -157 13 -19 40
-61 60 -94 21 -32 40 -56 43 -52 3 3 -14 36 -39 73 -25 38 -56 88 -68 113 -13
25 -27 48 -32 51 -6 4 -11 26 -11 50 -2 30 -9 51 -26 69 l-23 25 15 -37z"/>
<path d="M1400 5950 c0 -5 5 -10 11 -10 5 0 7 5 4 10 -3 6 -8 10 -11 10 -2 0
-4 -4 -4 -10z"/>
<path d="M1590 5945 c0 -8 4 -15 10 -15 5 0 7 7 4 15 -4 8 -8 15 -10 15 -2 0
-4 -7 -4 -15z"/>
<path d="M1226 5842 c10 -18 20 -28 23 -21 2 6 -7 21 -19 33 l-23 21 19 -33z"/>
<path d="M9010 5820 c-14 -10 -22 -21 -20 -24 3 -2 16 4 30 14 14 10 22 21 20
24 -3 2 -16 -4 -30 -14z"/>
<path d="M8706 5821 c-4 -7 -5 -15 -2 -18 9 -9 19 4 14 18 -4 11 -6 11 -12 0z"/>
<path d="M9253 5813 c-7 -2 -13 -13 -13 -23 0 -9 -7 -23 -15 -30 -10 -9 -13
-24 -8 -56 4 -28 0 -61 -11 -95 -20 -60 -16 -70 13 -33 30 38 43 96 37 165 -4
48 -2 60 12 68 17 11 7 13 -15 4z"/>
<path d="M8571 5759 c-12 -28 -20 -53 -17 -56 2 -2 7 6 11 19 4 13 16 34 26
47 20 25 24 41 11 41 -5 0 -18 -23 -31 -51z"/>
<path d="M9350 5775 c-7 -8 -10 -22 -6 -30 5 -14 8 -14 31 1 20 13 23 19 14
30 -15 18 -24 18 -39 -1z"/>
<path d="M8676 5754 c-11 -27 -7 -37 9 -24 16 14 20 40 6 40 -5 0 -12 -7 -15
-16z"/>
<path d="M8823 5763 c-7 -3 -13 -12 -14 -21 0 -9 -13 -39 -30 -67 -27 -47 -78
-147 -87 -170 -9 -26 34 37 64 95 19 36 46 84 60 108 26 45 28 62 7 55z"/>
<path d="M1602 5654 c17 -33 130 -214 133 -214 10 0 -19 60 -36 76 -10 9 -19
23 -19 30 0 7 -6 19 -14 26 -7 8 -21 28 -30 45 -9 18 -21 35 -27 39 -7 4 -10
3 -7 -2z"/>
<path d="M1116 5545 c4 -8 8 -15 10 -15 2 0 4 7 4 15 0 8 -4 15 -10 15 -5 0
-7 -7 -4 -15z"/>
<path d="M8900 5520 l-35 -31 37 23 c21 13 38 26 38 31 0 11 -3 9 -40 -23z"/>
<path d="M8840 5479 c0 -5 5 -7 10 -4 6 3 10 8 10 11 0 2 -4 4 -10 4 -5 0 -10
-5 -10 -11z"/>
<path d="M1756 5415 c8 -34 12 -41 20 -33 3 4 -2 19 -10 35 l-16 28 6 -30z"/>
<path d="M8626 5415 c-3 -10 -2 -23 4 -29 15 -15 24 1 13 26 -9 20 -10 20 -17
3z"/>
<path d="M2025 5360 c10 -11 23 -20 28 -20 6 0 2 9 -8 20 -10 11 -23 20 -28
20 -6 0 -2 -9 8 -20z"/>
<path d="M1796 5345 c9 -14 19 -24 21 -21 7 7 -16 46 -28 46 -5 0 -2 -11 7
-25z"/>
<path d="M1833 5284 c1 -21 6 -30 15 -27 16 7 15 15 -3 39 -13 18 -14 17 -12
-12z"/>
<path d="M7950 5230 c0 -22 7 -25 29 -11 16 10 6 31 -15 31 -8 0 -14 -9 -14
-20z"/>
<path d="M7776 5185 c-20 -30 -3 -44 25 -19 23 20 24 30 5 37 -8 3 -21 -4 -30
-18z"/>
<path d="M2250 5131 c0 -5 5 -13 10 -16 6 -3 10 -2 10 4 0 5 -4 13 -10 16 -5
3 -10 2 -10 -4z"/>
<path d="M1655 4960 c-16 -6 -15 -8 10 -14 17 -4 38 -9 47 -12 13 -4 16 -1 12
9 -6 18 -43 26 -69 17z"/>
<path d="M1456 4630 c-41 -13 -93 -51 -105 -78 -14 -29 -14 -78 -1 -103 15
-28 59 -47 115 -50 28 -2 53 -7 56 -12 11 -15 -55 -297 -161 -692 -78 -288
-75 -280 -125 -309 -50 -30 -79 -66 -101 -128 -18 -52 -5 -124 29 -156 60 -57
172 -69 245 -27 42 24 52 25 250 29 228 4 281 13 386 69 87 45 198 158 236
239 65 139 60 276 -14 385 -15 21 -26 41 -26 44 0 4 17 10 37 14 48 9 88 29
141 73 71 57 92 83 131 162 32 67 36 83 36 155 0 62 -5 89 -22 120 -78 145
-245 240 -465 264 -114 13 -600 13 -642 1z m659 -261 c128 -35 202 -153 134
-215 -25 -23 -110 -30 -316 -26 l-173 3 0 25 c0 14 4 44 10 67 5 23 14 68 20
100 l11 57 137 0 c75 0 155 -5 177 -11z m-190 -556 c22 -12 50 -32 62 -45 113
-121 30 -330 -154 -388 -73 -23 -295 -40 -306 -24 -11 18 116 463 136 477 7 4
59 6 117 4 83 -2 113 -7 145 -24z"/>
<path d="M1681 3634 c-24 -30 -27 -90 -7 -117 23 -30 70 -41 105 -23 54 29 68
92 30 140 -16 21 -29 26 -64 26 -35 0 -48 -5 -64 -26z"/>
<path d="M8725 4584 c-33 -2 -197 -8 -365 -14 -330 -12 -412 -21 -477 -50 -70
-31 -93 -61 -93 -119 0 -42 5 -56 29 -83 l29 -33 109 2 c60 1 156 7 214 13
162 16 559 25 559 13 0 -13 -166 -247 -289 -409 -386 -505 -441 -587 -441
-660 0 -67 43 -90 210 -113 263 -35 316 -43 384 -61 42 -10 95 -28 118 -38
l43 -19 -95 -45 c-120 -56 -154 -92 -147 -155 6 -52 27 -79 82 -104 111 -51
282 5 407 135 59 60 81 110 81 181 -1 178 -151 280 -513 351 -47 9 -88 19 -93
23 -4 4 93 158 216 342 300 451 345 541 335 674 -7 83 -32 134 -76 152 -37 15
-130 22 -227 17z"/>
<path d="M4353 4465 c-38 -16 -54 -45 -82 -148 -12 -43 -32 -99 -45 -125 -26
-50 -142 -192 -157 -192 -14 0 -11 37 16 163 27 125 31 192 15 202 -17 10 -92
-43 -126 -89 -67 -90 -334 -791 -389 -1023 -20 -83 -12 -119 34 -150 34 -23
118 -22 158 2 43 25 57 62 89 221 15 77 29 141 31 144 3 3 16 -8 30 -25 81
-97 325 -332 413 -400 102 -78 133 -90 240 -90 85 0 100 3 141 27 61 36 105
88 141 165 72 153 30 309 -78 289 -58 -11 -91 -51 -99 -121 -14 -112 -92 -148
-186 -85 -44 29 -254 234 -284 277 -15 21 -14 22 27 33 214 54 510 187 600
269 86 78 112 159 69 212 -18 23 -24 24 -103 19 -46 -2 -131 -5 -191 -5 -88 0
-107 -3 -107 -15 0 -48 -109 -145 -240 -214 -109 -58 -310 -107 -310 -76 0 5
47 33 105 61 134 67 247 157 330 262 77 96 106 165 113 264 6 86 -8 127 -49
148 -35 18 -64 18 -106 0z"/>
<path d="M7373 4419 c-40 -12 -57 -40 -48 -81 10 -44 60 -62 150 -54 58 5 74
10 93 32 27 31 28 54 1 88 -19 24 -26 26 -92 25 -40 0 -87 -5 -104 -10z"/>
<path d="M7098 4404 c-107 -58 -19 -208 94 -161 68 28 88 125 35 162 -27 19
-94 19 -129 -1z"/>
<path d="M6570 4350 c-111 -14 -330 -61 -376 -80 -52 -23 -65 -55 -41 -104 13
-28 35 -44 115 -83 2 0 -13 -79 -33 -175 -20 -95 -50 -245 -66 -333 -16 -88
-39 -207 -50 -265 -33 -173 -13 -226 85 -224 70 1 140 33 161 75 18 33 34 172
35 292 0 37 4 67 8 67 5 0 30 -46 57 -102 163 -350 184 -388 259 -463 89 -89
146 -118 244 -123 62 -4 80 -1 125 21 64 32 105 74 149 152 l34 60 174 7 c348
12 447 80 466 318 8 92 -4 106 -82 94 -64 -10 -66 -13 -79 -98 -4 -21 -17 -49
-32 -64 l-25 -25 -170 6 c-93 3 -172 8 -175 11 -12 12 17 51 177 232 300 340
339 397 326 469 -12 61 -26 65 -256 64 -113 0 -256 -4 -318 -8 -131 -10 -158
-23 -181 -87 -12 -35 -12 -44 3 -76 25 -52 51 -60 202 -59 73 1 135 -3 138 -8
9 -14 -113 -178 -271 -362 -100 -115 -161 -198 -168 -227 -8 -31 35 -99 70
-112 32 -12 32 -33 -1 -59 -56 -44 -137 -18 -192 61 -31 46 -37 57 -108 231
-24 59 -60 140 -80 179 -27 53 -33 73 -23 77 38 12 132 71 168 103 57 53 109
132 127 196 34 116 4 274 -69 354 -55 62 -177 87 -327 68z m86 -236 c41 -19
49 -44 41 -125 -9 -102 -81 -187 -193 -229 -83 -31 -84 -30 -84 46 0 75 28
280 42 307 12 23 145 24 194 1z"/>
<path d="M5610 4234 c-106 -28 -243 -103 -344 -188 -205 -173 -296 -549 -186
-772 43 -88 107 -154 188 -197 85 -45 145 -59 247 -59 226 1 405 105 493 286
63 129 65 224 6 247 -47 17 -74 -4 -149 -117 -114 -171 -243 -235 -376 -188
-63 23 -133 85 -154 137 l-16 39 73 -7 c183 -17 385 68 544 230 88 89 132 172
140 266 14 146 -77 282 -215 323 -67 20 -177 20 -251 0z m174 -225 c20 -16 26
-29 26 -62 0 -117 -135 -255 -309 -314 -111 -38 -126 -31 -110 51 20 107 111
245 196 298 38 23 111 46 149 47 12 1 33 -8 48 -20z"/>
<path d="M3445 4113 c-32 -8 -42 -20 -65 -81 -66 -174 -73 -186 -86 -167 -9
12 -11 37 -8 79 3 33 1 67 -4 75 -7 9 -37 14 -98 17 -49 1 -108 7 -131 12 -53
12 -82 -1 -105 -48 -27 -52 -24 -121 6 -153 l24 -26 -81 -83 c-141 -143 -201
-274 -202 -443 0 -84 3 -106 22 -140 57 -106 183 -153 293 -109 l41 16 33 -34
c91 -94 263 -56 321 71 17 38 17 48 5 125 -12 81 -12 88 14 193 31 124 90 323
141 477 57 172 44 227 -52 225 -27 -1 -57 -4 -68 -6z m-215 -87 c0 -2 -9 -6
-20 -9 -11 -3 -18 -1 -14 4 5 9 34 13 34 5z m40 -16 c0 -5 -7 -10 -15 -10 -8
0 -15 5 -15 10 0 6 7 10 15 10 8 0 15 -4 15 -10z m-65 -170 c3 -6 -1 -7 -9 -4
-11 4 -16 0 -16 -15 0 -12 5 -21 11 -21 5 0 7 -4 4 -10 -12 -19 -25 -10 -25
18 0 38 20 57 35 32z m55 -10 c0 -5 -4 -10 -9 -10 -6 0 -13 5 -16 10 -3 6 1
10 9 10 9 0 16 -4 16 -10z m-104 -47 c-6 -62 6 -79 64 -93 l52 -13 -6 -43
c-14 -105 -92 -285 -154 -354 -36 -41 -42 -44 -67 -35 -49 18 -70 58 -69 133
0 57 6 78 36 137 20 39 57 101 82 138 39 58 46 76 46 118 0 27 4 49 10 49 5 0
8 -17 6 -37z m138 11 c6 -15 4 -15 -11 -3 -10 7 -20 15 -22 16 -2 2 3 3 11 3
9 0 19 -7 22 -16z m-37 -46 c-3 -8 -6 -5 -6 6 -1 11 2 17 5 13 3 -3 4 -12 1
-19z"/>
<path d="M2457 3754 c-37 -37 -42 -74 -18 -130 25 -56 26 -81 4 -136 -25 -64
-67 -121 -166 -228 -156 -166 -212 -250 -223 -333 -8 -56 13 -97 63 -129 31
-19 51 -23 113 -23 108 1 178 25 242 84 l53 49 0 63 c0 57 -2 64 -26 78 -35
19 -69 9 -124 -39 -53 -46 -56 -47 -78 -22 -38 42 -14 84 76 138 207 125 281
223 294 389 4 51 1 88 -12 130 -34 118 -134 173 -198 109z"/>
<path d="M7774 2982 c-6 -4 -42 -52 -79 -107 -149 -220 -280 -372 -526 -610
-360 -349 -721 -567 -1165 -703 -508 -156 -1034 -178 -1521 -62 -713 170
-1382 615 -1807 1203 -43 59 -82 107 -86 107 -37 0 6 -77 131 -236 438 -555
1159 -1002 1838 -1139 219 -45 372 -58 611 -52 269 7 425 30 730 107 180 45
341 105 515 189 320 155 591 355 882 648 199 200 344 382 457 571 35 58 45
101 20 84z"/>
<path d="M2690 2953 c1 -19 173 -272 250 -369 100 -126 315 -347 415 -426 378
-299 925 -527 1420 -593 176 -23 426 -30 600 -16 480 39 995 216 1395 478 234
154 565 435 606 515 14 27 14 32 -1 54 -8 13 -23 24 -32 24 -9 0 -64 -47 -122
-104 -199 -194 -347 -309 -606 -468 -354 -217 -737 -358 -1125 -413 -667 -94
-1424 101 -2000 515 -262 188 -482 412 -665 675 -58 84 -104 135 -122 135 -7
0 -13 -3 -13 -7z"/>
<path d="M5063 2883 l-103 -4 0 -64 0 -65 65 0 65 0 0 -205 0 -205 85 0 c74 0
85 2 86 18 0 9 0 101 -1 205 l-1 187 51 0 51 0 -3 68 -3 67 -95 1 c-52 0 -141
-1 -197 -3z"/>
<path d="M4241 2823 c-27 -144 -51 -337 -42 -346 14 -14 168 -46 223 -47 26 0
59 5 73 12 51 23 71 108 40 168 -13 25 -13 32 0 57 8 15 15 39 15 53 0 35 -34
86 -68 104 -39 20 -169 56 -203 56 -24 0 -27 -5 -38 -57z m177 -64 c17 -7 22
-16 20 -32 -3 -19 -10 -22 -50 -25 -45 -3 -48 -2 -48 22 0 57 8 61 78 35z
m-21 -160 c51 -19 52 -59 2 -59 -45 0 -79 20 -79 47 0 26 28 31 77 12z"/>
<path d="M5599 2869 c-70 -3 -132 -9 -138 -13 -13 -8 -15 -165 -4 -345 l6
-114 115 7 c134 8 152 15 152 57 0 58 -14 69 -85 69 -68 0 -80 8 -71 44 5 19
15 25 56 30 44 6 50 9 50 31 0 47 -9 55 -61 55 -47 0 -49 1 -49 29 0 25 4 29
38 35 20 3 53 6 73 6 55 0 73 18 64 68 -4 23 -10 43 -13 45 -4 1 -64 0 -133
-4z"/>
<path d="M4716 2862 c-11 -18 -10 -492 1 -503 5 -5 42 -13 81 -16 l72 -6 -1
159 c-1 87 -4 206 -8 264 l-6 105 -67 3 c-36 2 -69 -1 -72 -6z"/>
<path d="M6420 2539 c-30 -22 -56 -44 -58 -49 -6 -16 28 -69 41 -64 8 3 13 -5
15 -22 1 -15 16 -49 32 -76 17 -26 30 -52 30 -57 0 -5 6 -13 13 -19 15 -13 72
19 60 33 -5 4 -3 6 2 2 17 -9 95 30 95 48 0 25 -25 28 -66 6 -52 -28 -71 -26
-89 9 -20 39 -19 57 5 65 29 9 50 33 44 50 -7 18 -23 19 -61 3 -15 -6 -40 -12
-55 -13 -23 -2 -28 1 -27 19 0 11 3 15 6 9 2 -7 9 -13 14 -13 4 0 6 6 3 14 -4
10 9 24 36 41 38 24 48 45 24 51 -5 2 -34 -15 -64 -37z m77 -104 c-15 -16 -19
-13 -11 9 3 9 10 13 15 10 5 -3 3 -11 -4 -19z"/>
<path d="M3785 2491 c-3 -11 -31 -65 -60 -119 -59 -107 -64 -126 -37 -136 9
-3 31 -14 47 -25 43 -28 81 -26 110 5 14 15 25 34 26 43 1 35 8 49 33 74 48
48 33 99 -44 146 -59 36 -67 37 -75 12z m89 -73 c14 -23 -3 -52 -32 -56 -30
-5 -45 29 -26 57 18 25 42 24 58 -1z m-54 -113 c19 -23 3 -57 -27 -53 -30 3
-49 28 -40 52 8 20 50 21 67 1z"/>
<path d="M6165 2393 c-44 -24 -86 -49 -92 -55 -22 -18 -3 -30 36 -23 36 6 38
5 82 -57 24 -35 55 -80 68 -100 22 -37 53 -49 66 -27 4 6 -14 45 -40 87 -90
145 -84 126 -47 165 26 27 30 36 20 45 -10 8 -33 -1 -93 -35z"/>
<path d="M4023 2234 c-108 -100 -120 -130 -50 -120 63 10 97 -6 97 -44 0 -23
6 -33 23 -39 12 -5 24 -7 26 -5 2 2 7 43 12 91 4 49 11 114 15 146 6 52 5 57
-12 57 -11 0 -61 -39 -111 -86z m57 -39 c0 -31 -3 -35 -25 -35 -29 0 -32 17
-7 48 24 31 32 27 32 -13z"/>
<path d="M5958 2273 c-23 -6 -23 -18 1 -52 11 -15 38 -69 61 -120 47 -109 62
-128 80 -105 17 19 4 59 -58 184 -47 95 -53 101 -84 93z"/>
<path d="M4281 2228 c-51 -137 -80 -233 -72 -241 19 -19 46 -1 59 40 21 66 38
63 75 -16 20 -44 41 -73 56 -81 13 -6 26 -8 29 -6 2 3 -9 35 -27 71 -48 101
-43 113 61 170 24 13 23 32 -1 40 -13 4 -39 -7 -75 -30 -30 -19 -59 -35 -64
-35 -5 0 -7 25 -4 55 4 46 2 55 -12 55 -9 0 -20 -10 -25 -22z"/>
<path d="M5760 2213 c-25 -9 -50 -35 -50 -52 0 -18 78 -220 93 -238 15 -20 51
-15 93 13 47 32 54 41 54 75 0 17 -12 38 -35 60 -28 28 -35 41 -35 75 0 27 -6
47 -18 57 -18 16 -71 21 -102 10z m68 -45 c17 -17 15 -43 -4 -59 -31 -26 -70
25 -44 56 15 18 32 19 48 3z m60 -131 c18 -14 15 -45 -7 -57 -33 -17 -50 -11
-65 23 -12 27 -12 34 1 43 15 12 49 8 71 -9z"/>
<path d="M4571 2098 c-16 -85 -31 -212 -26 -217 7 -6 139 -41 157 -41 11 0 18
8 18 19 0 16 -13 24 -61 37 -58 16 -60 18 -57 48 3 33 4 33 78 25 32 -4 35 -1
38 22 3 25 0 27 -47 33 -28 4 -51 10 -52 14 0 4 -2 14 -4 23 -6 34 10 43 58
30 63 -15 67 -14 67 14 0 17 -6 26 -22 29 -43 9 -129 26 -132 26 -2 0 -9 -28
-15 -62z"/>
<path d="M5355 2106 c-80 -10 -90 -13 -90 -31 0 -18 8 -20 68 -23 49 -2 67 -7
67 -17 0 -8 -5 -17 -10 -20 -6 -4 -22 -30 -37 -58 -14 -29 -29 -54 -32 -57
-16 -13 -41 -61 -41 -81 0 -21 2 -22 98 -15 101 8 119 14 109 40 -5 12 -19 14
-67 11 -64 -5 -66 -4 -49 27 8 16 8 23 -2 30 -11 8 -10 8 4 4 14 -4 27 13 65
90 40 80 45 96 32 104 -8 5 -17 9 -20 8 -3 0 -45 -6 -95 -12z"/>
<path d="M4926 2088 c-4 -13 -9 -80 -13 -150 -5 -116 -4 -128 12 -134 22 -9
35 11 35 57 0 67 30 60 62 -13 14 -33 30 -53 46 -59 39 -15 45 3 17 52 -32 56
-31 61 5 97 57 58 25 138 -64 161 -69 17 -93 14 -100 -11z m130 -64 c20 -30
-1 -54 -54 -61 l-42 -6 0 45 c0 25 2 47 5 50 12 12 79 -8 91 -28z"/>
</g>
</svg>
